HIERARCHY
ROOT Hips
{
	OFFSET 0.000000 0.000000 0.000000
	CHANNELS 6 Xposition Yposition Zposition Zrotation Yrotation Xrotation 
	JOINT LHipJoint
	{
		OFFSET 0.000000 0.000000 0.000000
		CHANNELS 3 Zrotation Yrotation Xrotation
		JOINT LeftUpLeg
		{
			OFFSET 1.363060 -1.794630 0.839290
			CHANNELS 3 Zrotation Yrotation Xrotation
			JOINT LeftLeg
			{
				OFFSET 2.448110 -6.726130 0.000000
				CHANNELS 3 Zrotation Yrotation Xrotation
				JOINT LeftFoot
				{
					OFFSET 2.562200 -7.039590 0.000000
					CHANNELS 3 Zrotation Yrotation Xrotation
					JOINT LeftToeBase
					{
						OFFSET 0.157640 -0.433110 2.322550
						CHANNELS 3 Zrotation Yrotation Xrotation
						End Site
						{
							OFFSET 0.000000 0.000000 0.000000
						}
					}
				}
			}
		}
	}
	JOINT RHipJoint
	{
		OFFSET 0.000000 0.000000 0.000000
		CHANNELS 3 Zrotation Yrotation Xrotation
		JOINT RightUpLeg
		{
			OFFSET -1.305520 -1.794630 0.839290
			CHANNELS 3 Zrotation Yrotation Xrotation
			JOINT RightLeg
			{
				OFFSET -2.542530 -6.985550 0.000000
				CHANNELS 3 Zrotation Yrotation Xrotation
				JOINT RightFoot
				{
					OFFSET -2.568260 -7.056230 0.000000
					CHANNELS 3 Zrotation Yrotation Xrotation
					JOINT RightToeBase
					{
						OFFSET -0.164730 -0.452590 2.363150
						CHANNELS 3 Zrotation Yrotation Xrotation
						End Site
						{
							OFFSET 0.000000 0.000000 0.000000
						}
					}
				}
			}
		}
	}
	JOINT LowerBack
	{
		OFFSET 0.000000 0.000000 0.000000
		CHANNELS 3 Zrotation Yrotation Xrotation
		JOINT Spine
		{
			OFFSET 0.028270 2.035590 -0.193380
			CHANNELS 3 Zrotation Yrotation Xrotation
			JOINT Spine1
			{
				OFFSET 0.056720 2.048850 -0.042750
				CHANNELS 3 Zrotation Yrotation Xrotation
				JOINT Neck
				{
					OFFSET 0.000000 0.000000 0.000000
					CHANNELS 3 Zrotation Yrotation Xrotation
					JOINT Neck1
					{
						OFFSET -0.054170 1.746240 0.172020
						CHANNELS 3 Zrotation Yrotation Xrotation
						JOINT Head
						{
							OFFSET 0.104070 1.761360 -0.123970
							CHANNELS 3 Zrotation Yrotation Xrotation
							End Site
							{
								OFFSET 0.000000 0.000000 0.000000
							}
						}
					}
				}
				JOINT LeftShoulder
				{
					OFFSET 0.000000 0.000000 0.000000
					CHANNELS 3 Zrotation Yrotation Xrotation
					JOINT LeftArm
					{
						OFFSET 3.362410 1.200890 -0.311210
						CHANNELS 3 Zrotation Yrotation Xrotation
						JOINT LeftForeArm
						{
							OFFSET 4.983000 -0.000000 -0.000000
							CHANNELS 3 Zrotation Yrotation Xrotation
							JOINT LeftHand
							{
								OFFSET 3.483560 -0.000000 -0.000000
								CHANNELS 3 Zrotation Yrotation Xrotation
								JOINT LeftFingerBase
								{
									OFFSET 0.000000 0.000000 0.000000
									CHANNELS 3 Zrotation Yrotation Xrotation
									JOINT LeftHandIndex1
									{
										OFFSET 0.715260 -0.000000 -0.000000
										CHANNELS 3 Zrotation Yrotation Xrotation
										End Site
										{
											OFFSET 0.000000 0.000000 0.000000
										}
									}
								}
								JOINT LThumb
								{
									OFFSET 0.000000 0.000000 0.000000
									CHANNELS 3 Zrotation Yrotation Xrotation
									End Site
									{
										OFFSET 0.000000 0.000000 0.000000
									}
								}
							}
						}
					}
				}
				JOINT RightShoulder
				{
					OFFSET 0.000000 0.000000 0.000000
					CHANNELS 3 Zrotation Yrotation Xrotation
					JOINT RightArm
					{
						OFFSET -3.136600 1.374050 -0.404650
						CHANNELS 3 Zrotation Yrotation Xrotation
						JOINT RightForeArm
						{
							OFFSET -5.241900 -0.000000 -0.000000
							CHANNELS 3 Zrotation Yrotation Xrotation
							JOINT RightHand
							{
								OFFSET -3.444170 -0.000000 -0.000000
								CHANNELS 3 Zrotation Yrotation Xrotation
								JOINT RightFingerBase
								{
									OFFSET 0.000000 0.000000 0.000000
									CHANNELS 3 Zrotation Yrotation Xrotation
									JOINT RightHandIndex1
									{
										OFFSET -0.622530 -0.000000 -0.000000
										CHANNELS 3 Zrotation Yrotation Xrotation
										End Site
										{
											OFFSET 0.000000 0.000000 0.000000
										}
									}
								}
								JOINT RThumb
								{
									OFFSET 0.000000 0.000000 0.000000
									CHANNELS 3 Zrotation Yrotation Xrotation
									End Site
									{
										OFFSET 0.000000 0.000000 0.000000
									}
								}
							}
						}
					}
				}
			}
		}
	}
}
MOTION
Frames: 4
Frame Time: 0.008333
0.052295 17.811108 -28.887010 -1.542102 0.599915 4.823205 -6.369354 0.754809 3.360458 -13.669184 -3.682818 -21.622896 2.271266 11.887339 36.836186 1.490248 -0.996721 3.506292 0.290100 -3.463800 -9.572800 1.872284 -1.764157 3.023049 15.176074 1.954946 -21.913481 -23.442355 -18.589369 98.408615 1.499483 -14.985711 20.899373 -0.188300 -2.795000 7.708600 -1.298160 -0.209456 13.444743 -1.008463 -0.560594 4.438707 -1.235802 0.173812 -9.012427 -4.379173 -0.400105 -6.432574 6.657766 -0.943085 -2.174393 1.815700 -0.399500 -1.934000 -4.122342 3.493864 -0.273229 -78.875169 -8.590210 45.523626 128.884296 -58.874530 -95.262290 0.242451 -1.498552 -28.012161 38.643387 7.597398 7.547800 -7.125000 0.000000 0.000000 10.945800 41.730900 -0.894600 4.889962 -3.047841 -2.501813 75.130848 -18.713521 43.790778 -65.383432 56.291772 -49.858155 2.630536 0.782633 5.787976 -46.303973 29.794818 -27.429400 7.125000 0.000000 0.000000 -10.660100 7.158800 -12.104700 
0.064821 17.773217 -28.396001 -1.571327 0.511358 5.134247 -6.427773 0.933822 3.735787 -13.755050 -3.432583 -20.335607 2.246955 11.781076 36.647484 1.325160 -0.437511 2.031430 0.582800 -4.888100 -13.589600 1.766922 -1.609164 2.729166 14.894193 2.785958 -24.758952 -23.867288 -18.712539 99.818291 1.515055 -14.390635 20.083117 -0.155500 -2.541000 7.003300 -1.279511 -0.383461 14.020187 -0.888817 -0.782148 3.569449 -1.108494 0.044046 -10.342393 -4.410455 -0.188216 -4.736383 6.459944 -0.753495 -2.295674 1.758700 -0.326500 -2.273800 -4.079803 3.539690 -0.228100 -78.915879 -9.478111 46.117285 129.632352 -58.513222 -95.779414 0.268985 -1.453214 -27.481042 38.189575 6.650491 6.655100 -7.125000 0.000000 0.000000 10.391400 40.457500 -1.178300 4.779736 -3.209824 -2.633822 74.997168 -21.654749 43.497294 -65.576773 56.578909 -50.151859 2.654046 0.804766 5.605493 -45.426144 30.096794 -26.978000 7.125000 0.000000 0.000000 -10.107200 7.123800 -11.452000 
0.074006 17.761735 -27.903216 -1.442973 0.568072 5.334316 -6.542016 1.133933 4.169025 -13.910786 -3.255953 -18.750672 2.057736 11.507721 35.936423 1.424068 -0.628221 1.639798 0.719400 -5.420100 -15.110800 1.666694 -1.481306 2.441781 14.426382 3.376024 -27.455968 -24.066343 -18.897563 100.469767 1.440467 -13.541095 19.690901 -0.131800 -2.340200 6.446700 -1.289594 -0.714515 13.717657 -0.917701 -1.185727 3.453800 -1.018399 -0.194287 -10.338602 -4.496710 0.090372 -3.769851 6.456004 -0.438862 -2.696406 1.788600 -0.188700 -2.609500 -4.045008 3.449855 -0.162701 -78.729890 -11.284140 46.132561 130.476987 -58.058459 -96.376078 0.310051 -1.424180 -27.585673 37.296873 5.675932 5.683900 -7.125000 0.000000 0.000000 9.472000 39.131000 -1.384300 4.709959 -3.272422 -2.710583 75.076539 -23.098802 43.317644 -65.512855 56.674235 -50.170920 2.683203 0.748947 5.266274 -43.952369 31.474138 -26.931000 7.125000 0.000000 0.000000 -8.910600 8.197600 -10.205800 
0.082044 17.783029 -27.397176 -1.394527 0.821529 5.523501 -6.636088 1.368478 4.610754 -13.934589 -3.209874 -17.049888 1.867738 11.227482 35.172952 1.184901 0.037113 1.388152 0.865400 -5.931700 -16.586400 1.573580 -1.374671 2.174335 14.174145 3.854023 -29.935216 -24.065357 -19.106138 100.564053 1.387900 -12.486489 18.911214 -0.063300 -1.623500 4.466300 -1.148914 -1.142387 13.713862 -0.957817 -1.692628 3.242594 -0.991309 -0.479804 -10.596913 -4.558886 0.338116 -3.374423 6.599228 -0.145281 -2.727850 1.855500 -0.051000 -2.701100 -4.012531 3.381363 -0.111899 -78.415063 -12.732244 46.101447 131.624792 -57.464198 -97.146713 0.321843 -1.379513 -27.938430 37.300528 5.414607 5.450000 -7.125000 0.000000 0.000000 9.429600 38.754600 -1.466100 4.644652 -3.322540 -2.780989 75.136297 -24.454774 43.289868 -65.461763 56.757022 -50.185062 2.697302 0.762017 5.015428 -43.188505 31.674274 -26.496500 7.125000 0.000000 0.000000 -8.441500 8.123500 -9.647900 
